{
  "asset": { "version": "2.0" },
  "scene": 0,
  "scenes": [{ "nodes": [0,1,2,3,4,5] }],
  "nodes": [{"mesh":0},{"mesh":1},{"mesh":2},{"mesh":3},{"mesh":4},{"mesh":5}],
  "meshes": [{"primitives":[{"attributes":{"POSITION":0,"TEXCOORD_0":1},"indices":2,"material":0}]},{"primitives":[{"attributes":{"POSITION":3,"TEXCOORD_0":4},"indices":5,"material":0}]},{"primitives":[{"attributes":{"POSITION":6,"TEXCOORD_0":7},"indices":8,"material":0}]},{"primitives":[{"attributes":{"POSITION":9,"TEXCOORD_0":10},"indices":11,"material":0}]},{"primitives":[{"attributes":{"POSITION":12,"TEXCOORD_0":13},"indices":14,"material":0}]},{"primitives":[{"attributes":{"POSITION":15,"TEXCOORD_0":16},"indices":17,"material":0}]}],
  "materials": [{
    "name" : "unnamed",
    "pbrMetallicRoughness": {
      "baseColorTexture": { "index": 0 },
      "metallicFactor": 0.0,
      "roughnessFactor": 1.0
    }
  }],
  "samplers": [{ "magFilter": 9728, "minFilter": 9728 }],
  "textures": [{ "source": 0, "sampler": 0 }],
  "images": [{ "uri": "unnamed.png" }],
  "accessors": [{"bufferView":0,"byteOffset":0,"componentType":5126,"count":48,"type":"VEC3","min":[0.2501,-0.5,1.25],"max":[1.7498,0,2.75]},{"bufferView":1,"byteOffset":0,"componentType":5126,"count":48,"type":"VEC2"},{"bufferView":2,"byteOffset":0,"componentType":5123,"count":48,"type":"SCALAR"},{"bufferView":3,"byteOffset":0,"componentType":5126,"count":60,"type":"VEC3","min":[-1.75,-0.5,-1],"max":[-0.25,0,1]},{"bufferView":4,"byteOffset":0,"componentType":5126,"count":60,"type":"VEC2"},{"bufferView":5,"byteOffset":0,"componentType":5123,"count":60,"type":"SCALAR"},{"bufferView":6,"byteOffset":0,"componentType":5126,"count":48,"type":"VEC3","min":[0.2501,-0.5,-2.75],"max":[1.7498,0,-1.25]},{"bufferView":7,"byteOffset":0,"componentType":5126,"count":48,"type":"VEC2"},{"bufferView":8,"byteOffset":0,"componentType":5123,"count":48,"type":"SCALAR"},{"bufferView":9,"byteOffset":0,"componentType":5126,"count":84,"type":"VEC3","min":[0.25,-0.5,-0.75],"max":[1.75,0,0.75]},{"bufferView":10,"byteOffset":0,"componentType":5126,"count":84,"type":"VEC2"},{"bufferView":11,"byteOffset":0,"componentType":5123,"count":84,"type":"SCALAR"},{"bufferView":12,"byteOffset":0,"componentType":5126,"count":60,"type":"VEC3","min":[2.25,-0.5,-0],"max":[3.75,0,2]},{"bufferView":13,"byteOffset":0,"componentType":5126,"count":60,"type":"VEC2"},{"bufferView":14,"byteOffset":0,"componentType":5123,"count":60,"type":"SCALAR"},{"bufferView":15,"byteOffset":0,"componentType":5126,"count":48,"type":"VEC3","min":[2.2501,-0.5,-2],"max":[3.7498,0,-0.5]},{"bufferView":16,"byteOffset":0,"componentType":5126,"count":48,"type":"VEC2"},{"bufferView":17,"byteOffset":0,"componentType":5123,"count":48,"type":"SCALAR"}],
  "bufferViews": [{"buffer":0,"byteOffset":0,"byteLength":576,"target":34962},{"buffer":0,"byteOffset":576,"byteLength":384,"target":34962},{"buffer":0,"byteOffset":960,"byteLength":96,"target":34963},{"buffer":0,"byteOffset":1056,"byteLength":720,"target":34962},{"buffer":0,"byteOffset":1776,"byteLength":480,"target":34962},{"buffer":0,"byteOffset":2256,"byteLength":120,"target":34963},{"buffer":0,"byteOffset":2376,"byteLength":576,"target":34962},{"buffer":0,"byteOffset":2952,"byteLength":384,"target":34962},{"buffer":0,"byteOffset":3336,"byteLength":96,"target":34963},{"buffer":0,"byteOffset":3432,"byteLength":1008,"target":34962},{"buffer":0,"byteOffset":4440,"byteLength":672,"target":34962},{"buffer":0,"byteOffset":5112,"byteLength":168,"target":34963},{"buffer":0,"byteOffset":5280,"byteLength":720,"target":34962},{"buffer":0,"byteOffset":6000,"byteLength":480,"target":34962},{"buffer":0,"byteOffset":6480,"byteLength":120,"target":34963},{"buffer":0,"byteOffset":6600,"byteLength":576,"target":34962},{"buffer":0,"byteOffset":7176,"byteLength":384,"target":34962},{"buffer":0,"byteOffset":7560,"byteLength":96,"target":34963}],
  "buffers": [{ "uri": "unnamed.bin", "byteLength": 7656 }]
}